# xmcd CD database file
#
# Track frame offsets:
#	150
#	21803
#	40323
#	68720
#	99209
#	126238
#	146598
#	163704
#	184064
#	216458
#
# Disc length: 3441 seconds
#
# Revision: 0
# Processed by: cddbd v1.5.1PL2 Copyright (c) Steve Scherf et al.
# Submitted via: CDex 1.51
#
DISCID=8d0d6f0a
DTITLE=Jon Sanders and Mark Crickard - Salsa Summer
DYEAR=2003
DGENRE=Salsa
TTITLE0=Rumba Negra
TTITLE1=College Groves
TTITLE2=Poor Wayfaring Stranger
TTITLE3=Flatbush Waltz/Monaghan Jig
TTITLE4=Hector's Heroes
TTITLE5=The Oak Tree/Nine Points of Roguery
TTITLE6=Salsa Summer
TTITLE7=An Draighnean Donn
TTITLE8=The Iberian Set
TTITLE9=Return to Camden Town
EXTD=YEAR: 2003
EXTT0=
EXTT1=
EXTT2=
EXTT3=
EXTT4=
EXTT5=
EXTT6=
EXTT7=
EXTT8=
EXTT9=
PLAYORDER=
